# Blender v2.79 (sub 0) OBJ File: ''
# www.blender.org
mtllib bboy_barrier4.mtl
o Cube.003_Cube.006
v -0.001473 1.587139 -0.616095
v -0.001473 1.587139 -0.693395
v -0.001473 0.004686 -0.693396
v -0.001473 0.004686 -0.616096
v 0.061011 1.587139 -0.693395
v 0.061011 0.004686 -0.693396
v 0.061011 1.587139 -0.616095
v 0.061011 0.004686 -0.616096
vt 0.000000 0.000000
vt 1.000000 0.000000
vt 1.000000 1.000000
vt 0.000000 1.000000
vt 0.000000 0.000000
vt 1.000000 0.000000
vt 1.000000 1.000000
vt 0.000000 1.000000
vt 0.000000 0.000000
vt 1.000000 0.000000
vt 1.000000 1.000000
vt 0.000000 1.000000
vt 0.000000 0.000000
vt 1.000000 0.000000
vt 1.000000 1.000000
vt 0.000000 1.000000
vt 0.000000 0.000000
vt 1.000000 0.000000
vt 1.000000 1.000000
vt 0.000000 1.000000
vn -1.0000 0.0000 0.0000
vn 0.0000 0.0000 -1.0000
vn 1.0000 0.0000 0.0000
vn 0.0000 -0.0000 1.0000
vn 0.0000 -1.0000 -0.0000
vn 0.0000 1.0000 0.0000
usemtl Material.003
s 1
f 1/1/1 2/2/1 3/3/1 4/4/1
f 2/5/2 5/6/2 6/7/2 3/8/2
f 5/9/3 7/10/3 8/11/3 6/12/3
f 7/13/4 1/14/4 4/15/4 8/16/4
f 4/17/5 3/18/5 6/7/5 8/16/5
f 7/13/6 5/6/6 2/19/6 1/20/6
o Cube.001_Cube.004
v -0.069583 0.828544 1.037461
v -0.069583 0.828544 -0.962539
v -0.069583 0.511849 -0.962540
v -0.069583 0.511849 1.037461
v -0.007100 0.828544 -0.962539
v -0.007100 0.511849 -0.962540
v -0.007100 0.828544 1.037461
v -0.007100 0.511849 1.037461
vt 0.000000 1.000000
vt 0.000000 0.000000
vt 0.385800 0.000000
vt 0.385800 1.000000
vt 1.000000 0.316700
vt 0.923900 0.316700
vt 0.923900 0.158300
vt 1.000000 0.158300
vt 0.385800 1.000000
vt 0.385800 0.000000
vt 0.771600 0.000000
vt 0.771600 1.000000
vt 0.923900 0.000000
vt 1.000000 0.000000
vt 1.000000 0.158300
vt 0.923900 0.158300
vt 0.847800 0.000000
vt 0.847800 1.000000
vt 0.923900 1.000000
vt 0.847800 1.000000
vt 0.847800 0.000000
vn -1.0000 -0.0000 0.0000
vn 0.0000 0.0000 -1.0000
vn 1.0000 0.0000 0.0000
vn 0.0000 0.0000 1.0000
vn 0.0000 -1.0000 -0.0000
vn 0.0000 1.0000 0.0000
usemtl Material.004
s 1
f 9/21/7 10/22/7 11/23/7 12/24/7
f 10/25/8 13/26/8 14/27/8 11/28/8
f 13/29/9 15/30/9 16/31/9 14/32/9
f 15/33/10 9/34/10 12/35/10 16/36/10
f 12/37/11 11/38/11 14/32/11 16/31/11
f 15/33/12 13/39/12 10/40/12 9/41/12
o Cube_Cube.003
v -0.060209 1.185478 1.041391
v -0.060209 1.185478 -0.958609
v -0.060209 0.868783 -0.958609
v -0.060209 0.868783 1.041391
v 0.002275 1.185478 -0.958609
v 0.002275 0.868783 -0.958609
v 0.002275 1.185478 1.041391
v 0.002275 0.868783 1.041391
vt 0.000000 1.000000
vt 0.000000 0.000000
vt 0.385800 0.000000
vt 0.385800 1.000000
vt 1.000000 0.316700
vt 0.923900 0.316700
vt 0.923900 0.158300
vt 1.000000 0.158300
vt 0.385800 1.000000
vt 0.385800 0.000000
vt 0.771600 0.000000
vt 0.771600 1.000000
vt 0.923900 0.000000
vt 1.000000 0.000000
vt 1.000000 0.158300
vt 0.923900 0.158300
vt 0.847800 0.000000
vt 0.847800 1.000000
vt 0.923900 1.000000
vt 0.847800 1.000000
vt 0.847800 0.000000
vn -1.0000 0.0000 0.0000
vn 0.0000 0.0000 -1.0000
vn 1.0000 0.0000 0.0000
vn 0.0000 -0.0000 1.0000
vn 0.0000 -1.0000 -0.0000
vn 0.0000 1.0000 0.0000
usemtl Material.004
s 1
f 17/42/13 18/43/13 19/44/13 20/45/13
f 18/46/14 21/47/14 22/48/14 19/49/14
f 21/50/15 23/51/15 24/52/15 22/53/15
f 23/54/16 17/55/16 20/56/16 24/57/16
f 20/58/17 19/59/17 22/53/17 24/52/17
f 23/54/18 21/60/18 18/61/18 17/62/18
o Cube.002_Cube.005
v -0.066597 1.539900 1.035037
v -0.066597 1.539900 -0.964963
v -0.066597 1.223205 -0.964963
v -0.066597 1.223205 1.035037
v -0.004113 1.539900 -0.964963
v -0.004113 1.223205 -0.964963
v -0.004113 1.539900 1.035037
v -0.004113 1.223205 1.035037
vt 0.000000 1.000000
vt 0.000000 0.000000
vt 0.385800 0.000000
vt 0.385800 1.000000
vt 1.000000 0.316700
vt 0.923900 0.316700
vt 0.923900 0.158300
vt 1.000000 0.158300
vt 0.385800 1.000000
vt 0.385800 0.000000
vt 0.771600 0.000000
vt 0.771600 1.000000
vt 0.923900 0.000000
vt 1.000000 0.000000
vt 1.000000 0.158300
vt 0.923900 0.158300
vt 0.847800 0.000000
vt 0.847800 1.000000
vt 0.923900 1.000000
vt 0.847800 1.000000
vt 0.847800 0.000000
vn -1.0000 0.0000 0.0000
vn 0.0000 0.0000 -1.0000
vn 1.0000 0.0000 0.0000
vn 0.0000 0.0000 1.0000
vn 0.0000 -1.0000 -0.0000
vn 0.0000 1.0000 0.0000
usemtl Material.004
s 1
f 25/63/19 26/64/19 27/65/19 28/66/19
f 26/67/20 29/68/20 30/69/20 27/70/20
f 29/71/21 31/72/21 32/73/21 30/74/21
f 31/75/22 25/76/22 28/77/22 32/78/22
f 28/79/23 27/80/23 30/74/23 32/73/23
f 31/75/24 29/81/24 26/82/24 25/83/24
o Cube.004_Cube.007
v 0.002012 1.576974 0.811741
v 0.002012 1.576974 0.734442
v 0.002012 -0.005478 0.734441
v 0.002012 -0.005478 0.811740
v 0.064495 1.576974 0.734442
v 0.064495 -0.005478 0.734441
v 0.064495 1.576974 0.811741
v 0.064495 -0.005478 0.811740
vt 0.000000 0.000000
vt 1.000000 0.000000
vt 1.000000 1.000000
vt 0.000000 1.000000
vt 0.000000 0.000000
vt 1.000000 0.000000
vt 1.000000 1.000000
vt 0.000000 1.000000
vt 0.000000 0.000000
vt 1.000000 0.000000
vt 1.000000 1.000000
vt 0.000000 1.000000
vt 0.000000 0.000000
vt 1.000000 0.000000
vt 1.000000 1.000000
vt 0.000000 1.000000
vt 0.000000 0.000000
vt 1.000000 0.000000
vt 1.000000 1.000000
vt 0.000000 1.000000
vn -1.0000 0.0000 0.0000
vn 0.0000 0.0000 -1.0000
vn 1.0000 0.0000 0.0000
vn 0.0000 -0.0000 1.0000
vn 0.0000 -1.0000 -0.0000
vn 0.0000 1.0000 0.0000
usemtl Material.003
s 1
f 33/84/25 34/85/25 35/86/25 36/87/25
f 34/88/26 37/89/26 38/90/26 35/91/26
f 37/92/27 39/93/27 40/94/27 38/95/27
f 39/96/28 33/97/28 36/98/28 40/99/28
f 36/100/29 35/101/29 38/90/29 40/99/29
f 39/96/30 37/89/30 34/102/30 33/103/30
